<svg width="48" height="48" viewBox="0 0 48 48" fill="none" xmlns="http://www.w3.org/2000/svg">
<circle cx="24" cy="24" r="24" fill="#EF6D58"/>
<path fill-rule="evenodd" clip-rule="evenodd" d="M24.375 16C21.1688 16 18 18.1927 18 21.7414C18 23.9983 19.2375 25.2806 19.9875 25.2806C20.2969 25.2806 20.475 24.3958 20.475 24.1457C20.475 23.8476 19.7344 23.2129 19.7344 21.9723C19.7344 19.3949 21.6469 17.5676 24.1219 17.5676C26.25 17.5676 27.825 18.8082 27.825 21.0875C27.825 22.7897 27.1594 25.9826 25.0031 25.9826C24.225 25.9826 23.5594 25.4056 23.5594 24.5785C23.5594 23.3667 24.3844 22.1935 24.3844 20.9432C24.3844 18.821 21.45 19.2057 21.45 21.7703C21.45 22.3089 21.5156 22.9051 21.75 23.3956C21.3187 25.2998 20.4375 28.1369 20.4375 30.0988C20.4375 30.7046 20.5219 31.3009 20.5781 31.9068C20.6844 32.0286 20.6313 32.0158 20.7938 31.9549C22.3688 29.7429 22.3125 29.3102 23.025 26.4154C23.4094 27.1655 24.4031 27.5694 25.1906 27.5694C28.5094 27.5694 30 24.2515 30 21.2606C30 18.0773 27.3188 16 24.375 16Z" fill="white"/>
</svg>
